<svg width="120" height="60" viewBox="0 0 120 60" fill="none" xmlns="http://www.w3.org/2000/svg">
<path d="M3.57088 22.0553L4.78143 27.8298C4.95926 28.678 5.24972 29.3958 5.65283 29.983C6.0532 30.5572 6.53835 31.027 7.10829 31.3924C7.68882 31.7447 8.3302 32.0057 9.03243 32.1753C9.73193 32.3319 10.475 32.4102 11.2617 32.4102H13.4617C14.235 32.4102 14.9386 32.3319 15.5724 32.1753C16.2169 32.0057 16.7488 31.7447 17.1683 31.3924C17.5984 31.027 17.8932 30.5572 18.0528 29.983C18.2231 29.3958 18.2193 28.678 18.0414 27.8298L16.8309 22.0553H18.0909L19.3014 27.8298C19.523 28.8868 19.5371 29.7807 19.3436 30.5115C19.1502 31.2423 18.796 31.8426 18.2812 32.3124C17.7769 32.7691 17.1333 33.1019 16.3504 33.3107C15.5648 33.5064 14.6853 33.6043 13.712 33.6043H11.512C10.5387 33.6043 9.61148 33.5064 8.73044 33.3107C7.86 33.1019 7.07024 32.7691 6.36116 32.3124C5.66267 31.8426 5.06349 31.2423 4.56363 30.5115C4.07709 29.7807 3.72303 28.8868 3.50143 27.8298L2.29088 22.0553H3.57088ZM2.40143 27.8298C2.66133 29.0695 3.07626 30.1265 3.64622 31.0009C4.21344 31.8621 4.90117 32.5668 5.7094 33.1149C6.53097 33.663 7.44911 34.0675 8.46383 34.3285C9.48914 34.5765 10.5818 34.7004 11.7418 34.7004H13.9418C15.1018 34.7004 16.1358 34.5765 17.0438 34.3285C17.9624 34.0675 18.711 33.663 19.2894 33.1149C19.8812 32.5668 20.2801 31.8621 20.4862 31.0009C20.6896 30.1265 20.6613 29.0695 20.4014 27.8298L18.9611 20.9591H15.4811L16.9214 27.8298C17.061 28.4953 17.0572 29.0499 16.9102 29.4936C16.7633 29.9373 16.5185 30.2962 16.1759 30.5702C15.8307 30.8312 15.4037 31.0204 14.8949 31.1379C14.3862 31.2553 13.8319 31.3141 13.2319 31.3141H11.0319C10.4319 31.3141 9.8529 31.2553 9.29494 31.1379C8.73699 31.0204 8.22928 30.8247 7.77183 30.5506C7.31438 30.2766 6.91915 29.9177 6.58614 29.4741C6.26646 29.0304 6.03822 28.4823 5.90144 27.8298L4.46108 20.9591H0.961076L2.40143 27.8298ZM0.358486 20.4698H4.85849L7.22116 22.486L8.75179 29.7872C8.78189 29.9308 8.81061 30.0678 8.83797 30.1983C8.87866 30.3288 8.92465 30.4528 8.97594 30.5702C9.5715 30.7399 10.2226 30.8247 10.9293 30.8247H13.1293C13.6493 30.8247 14.133 30.779 14.5806 30.6877C15.0387 30.5833 15.4231 30.4136 15.7339 30.1787C16.0446 29.9438 16.267 29.6372 16.401 29.2587C16.535 28.8803 16.5418 28.404 16.4214 27.8298L14.8785 20.4698H19.3585L21.7212 22.486L23.2518 29.7872C23.5281 31.1053 23.5567 32.2275 23.3376 33.1541C23.1185 34.0806 22.7025 34.8309 22.0895 35.4051C21.4793 35.9924 20.6882 36.4165 19.7163 36.6775C18.747 36.9515 17.6558 37.0885 16.4424 37.0885H14.2424C13.5624 37.0885 12.8956 37.0559 12.2419 36.9907C11.6016 36.9254 10.9783 36.8145 10.3722 36.6579C9.78206 36.5143 9.22102 36.3186 8.68905 36.0707C8.15707 35.8227 7.66611 35.516 7.21618 35.1507C6.32213 34.5112 5.56825 33.9044 4.95454 33.3302C4.35144 32.743 3.84833 32.1558 3.44522 31.5685C3.04211 30.9813 2.71764 30.3875 2.47179 29.7872C2.23655 29.1739 2.04643 28.5214 1.90143 27.8298L0.358486 20.4698ZM36.7879 24.3455C36.9479 24.3455 37.1173 24.3586 37.2961 24.3847C37.4749 24.4108 37.6445 24.4565 37.8048 24.5217C37.9651 24.587 38.1043 24.6783 38.2223 24.7957C38.3535 24.9132 38.4397 25.0698 38.4807 25.2655C38.519 25.4482 38.4972 25.5983 38.4151 25.7157C38.3331 25.8332 38.2189 25.9245 38.0726 25.9898C37.9396 26.055 37.7825 26.1007 37.6013 26.1268C37.4334 26.1529 37.2828 26.166 37.1495 26.166H29.7495L29.3679 24.3455H36.7879ZM37.3752 27.2426C37.6952 27.2426 38.0017 27.2099 38.2947 27.1447C38.5983 27.0664 38.8603 26.9489 39.0808 26.7923C39.3013 26.6358 39.4589 26.4335 39.5536 26.1855C39.6589 25.9245 39.6746 25.6179 39.6007 25.2655C39.5241 24.9001 39.3851 24.587 39.1838 24.326C38.9824 24.065 38.7386 23.8562 38.4525 23.6996C38.1796 23.543 37.8764 23.4321 37.5427 23.3668C37.2196 23.2885 36.8914 23.2494 36.5581 23.2494H28.0381L28.8752 27.2426H37.3752ZM39.3799 28.1234C39.2151 28.2278 39.0248 28.3061 38.8091 28.3583C38.5934 28.4105 38.391 28.4627 38.2019 28.5149C39.1292 29.3762 40.0536 30.2244 40.9754 31.0596C41.9105 31.8948 42.8483 32.743 43.7889 33.6043H42.1689L36.4614 28.417H29.1214L30.2089 33.6043H28.9689L26.5478 22.0553H36.3078C36.8544 22.0553 37.3734 22.114 37.8647 22.2315C38.3693 22.3489 38.8156 22.5382 39.2037 22.7992C39.6051 23.0601 39.9415 23.3929 40.213 23.7974C40.4978 24.202 40.7004 24.6914 40.8207 25.2655C40.9712 25.9833 40.929 26.577 40.6942 27.0468C40.4566 27.5036 40.0251 27.8624 39.3999 28.1234H39.3799ZM41.9407 25.2655C41.7848 24.5217 41.5308 23.8823 41.1786 23.3472C40.8237 22.7992 40.3893 22.3489 39.8754 21.9966C39.3616 21.6443 38.7802 21.3833 38.1313 21.2136C37.4957 21.044 36.8113 20.9591 36.078 20.9591H25.238L28.1187 34.7004H31.5387L30.4471 29.4936H36.1671L41.8587 34.7004H46.4587L40.2327 29.0434C41.7489 28.3257 42.3183 27.0664 41.9407 25.2655ZM27.7213 35.1898L24.6354 20.4698H35.9754C36.4954 20.4698 37.0036 20.5089 37.5 20.5872C37.9937 20.6525 38.5038 20.796 39.0303 21.0179C39.5701 21.2397 40.1438 21.5594 40.7513 21.977C41.3722 22.3946 42.0551 22.9492 42.8001 23.6409C43.2661 24.0193 43.6728 24.5282 44.0202 25.1677C44.3782 25.794 44.6352 26.4792 44.7911 27.223C44.9717 28.0843 44.9384 28.8477 44.6912 29.5132C44.4574 30.1787 44.0243 30.7203 43.3918 31.1379C43.9036 31.6077 44.4396 32.097 44.9996 32.606C45.5596 33.1149 46.121 33.6304 46.6838 34.1524C47.2438 34.6613 47.7958 35.1637 48.3397 35.6596C48.8998 36.1685 49.4263 36.6448 49.9193 37.0885H44.1593L41.7413 35.1898L38.1278 31.8817H33.3878L34.4793 37.0885H30.1793L27.7213 35.1898ZM60.4207 27.2426C60.7407 27.2426 61.0472 27.2099 61.3402 27.1447C61.6304 27.0664 61.8791 26.9489 62.0863 26.7923C62.3068 26.6358 62.4644 26.4335 62.5591 26.1855C62.651 25.9245 62.6601 25.6179 62.5862 25.2655C62.5096 24.9001 62.372 24.5935 62.1733 24.3455C61.9853 24.0845 61.7549 23.8757 61.482 23.7192C61.2065 23.5495 60.9085 23.4321 60.5882 23.3668C60.2651 23.2885 59.9369 23.2494 59.6035 23.2494H51.0435L51.8807 27.2426H60.4207ZM59.8333 24.3455C59.98 24.3455 60.1427 24.3586 60.3215 24.3847C60.5004 24.4108 60.6713 24.463 60.8344 24.5413C60.9947 24.6065 61.1339 24.6979 61.2518 24.8153C61.3698 24.9328 61.4479 25.0828 61.4862 25.2655C61.5245 25.4482 61.5026 25.5983 61.4206 25.7157C61.3491 25.8201 61.2416 25.9115 61.098 25.9898C60.9651 26.055 60.8146 26.1007 60.6468 26.1268C60.4789 26.1529 60.3283 26.166 60.195 26.166H52.775L52.3933 24.3455H59.8333ZM62.584 32.4102C62.904 32.4102 63.2172 32.3776 63.5235 32.3124C63.8271 32.2341 64.0825 32.1166 64.2896 31.96C64.5074 31.7904 64.6636 31.5816 64.7583 31.3336C64.8636 31.0726 64.8779 30.7594 64.8013 30.3941C64.733 30.0678 64.6061 29.7807 64.4208 29.5328C64.2355 29.2848 64.0131 29.0826 63.7536 28.926C63.4913 28.7563 63.2054 28.6323 62.8956 28.554C62.5965 28.4627 62.2936 28.417 61.9869 28.417H52.1269L52.964 32.4102H62.584ZM62.2126 29.4936C62.3459 29.4936 62.49 29.5132 62.6449 29.5523C62.8104 29.5784 62.9613 29.6306 63.0977 29.7089C63.2447 29.7742 63.3706 29.8655 63.4752 29.983C63.5798 30.1004 63.6485 30.2375 63.6813 30.3941C63.7224 30.5898 63.7019 30.7464 63.6198 30.8638C63.5511 30.9813 63.4436 31.0726 63.2973 31.1379C63.1643 31.2031 63.0072 31.2488 62.826 31.2749C62.6581 31.301 62.5009 31.3141 62.3542 31.3141H53.8542L53.4726 29.4936H62.2126ZM59.3532 22.0553C59.8999 22.0553 60.4189 22.114 60.9102 22.2315C61.4014 22.3489 61.8411 22.5382 62.2292 22.7992C62.6305 23.0601 62.967 23.3929 63.2384 23.7974C63.5232 24.202 63.7325 24.6914 63.8662 25.2655C63.9319 25.5787 63.9215 25.8789 63.835 26.166C63.7591 26.44 63.643 26.6814 63.4868 26.8902C63.3306 27.099 63.1528 27.2687 62.9535 27.3992C62.7515 27.5166 62.5718 27.5819 62.4145 27.5949C62.78 27.621 63.1592 27.7123 63.552 27.8689C63.9421 28.0125 64.3031 28.2082 64.6351 28.4562C64.9804 28.7041 65.2806 28.9912 65.5357 29.3175C65.7907 29.6437 65.9593 30.0026 66.0413 30.3941C66.1645 30.9813 66.1698 31.4837 66.0573 31.9013C65.9421 32.3058 65.7319 32.6386 65.4266 32.8996C65.1319 33.1475 64.7569 33.3302 64.3015 33.4477C63.8567 33.5521 63.3677 33.6043 62.8343 33.6043H52.0143L49.5932 22.0553H59.3532ZM63.0641 34.7004C63.7841 34.7004 64.4344 34.6221 65.0149 34.4655C65.5927 34.2959 66.066 34.0414 66.4349 33.7021C66.801 33.3498 67.0546 32.9061 67.1958 32.3711C67.3342 31.823 67.3228 31.164 67.1613 30.3941C67.0246 29.7416 66.7162 29.1609 66.2361 28.6519C65.7694 28.143 65.138 27.7384 64.3417 27.4383C64.4744 27.3078 64.5896 27.1577 64.6873 26.9881C64.7824 26.8054 64.856 26.6162 64.9083 26.4204C64.9606 26.2247 64.9929 26.0289 65.0052 25.8332C65.0148 25.6244 65.0018 25.4352 64.9662 25.2655C64.8103 24.5217 64.5562 23.8823 64.2041 23.3472C63.8492 22.7992 63.4148 22.3489 62.9009 21.9966C62.4004 21.6443 61.8257 21.3833 61.1768 21.2136C60.5412 21.044 59.8568 20.9591 59.1234 20.9591H48.2434L51.1241 34.7004H63.0641ZM47.6408 20.4698H59.0208C60.2208 20.4698 61.3485 20.6655 62.4039 21.057C63.4593 21.4485 64.5096 22.1336 65.5548 23.1123C65.9032 23.4386 66.2413 23.8431 66.5692 24.326C66.8944 24.7957 67.1583 25.2916 67.3611 25.8136C67.5611 26.3226 67.6665 26.825 67.6771 27.3209C67.701 27.8167 67.5766 28.2409 67.3038 28.5932C67.6778 28.7237 68.0177 28.9455 68.3233 29.2587C68.6263 29.5589 68.8894 29.8916 69.1126 30.257C69.3492 30.6224 69.5405 30.9943 69.6865 31.3728C69.8459 31.7512 69.9543 32.0775 70.0117 32.3515C70.1895 33.1997 70.2014 33.924 70.0472 34.5243C69.9036 35.1115 69.6315 35.5943 69.2309 35.9728C68.8329 36.3643 68.3184 36.6448 67.6873 36.8145C67.059 36.9972 66.3514 37.0885 65.5648 37.0885H53.1848L50.7267 35.1898L47.6408 20.4698ZM85.8795 29.3566L80.4325 23.5038L77.3395 29.3566H85.8795ZM83.4979 28.2996H79.2579L80.7824 25.3634L83.4979 28.2996ZM89.75 33.6043L86.9539 30.5702H76.7339C76.4645 31.0661 76.2046 31.575 75.954 32.097C75.714 32.606 75.4593 33.1084 75.19 33.6043H73.59C74.5957 31.6599 75.5988 29.735 76.5994 27.8298C77.6133 25.9245 78.6165 23.9997 79.6088 22.0553H80.5688L91.25 33.6043H89.75ZM78.839 20.9591L71.7198 34.7004H75.9598L77.5237 31.6664H86.5637L89.3798 34.7004H93.6198L80.939 20.9591H78.839ZM83.4991 22.486L96.9604 37.0885H91.6404L89.2224 35.1898L88.1643 34.0545H80.2643C80.1536 34.2894 80.0256 34.5373 79.8803 34.7983C79.7483 35.0593 79.6097 35.3203 79.4644 35.5813C79.3352 35.8553 79.2033 36.1163 79.0686 36.3643C78.9366 36.6253 78.8139 36.8667 78.7004 37.0885H73.3604L70.8424 35.1898L78.4765 20.4698H81.0965L83.4991 22.486ZM96.6671 23.9149L98.6984 33.6043H97.5184L95.0973 22.0553H96.1173L108.889 31.7447L106.857 22.0553H108.057L110.478 33.6043H109.478L96.6671 23.9149ZM108.947 20.9591H105.527L107.272 29.2783L96.2675 20.9591H93.7475L96.6282 34.7004H100.048L98.3001 26.3617L109.328 34.7004H111.828L108.947 20.9591ZM96.2308 35.1898L93.1449 20.4698H96.3449L106.538 28.1626L104.925 20.4698H109.345L111.708 22.486L114.769 37.0885H111.649L101.36 29.3175L102.989 37.0885H98.6888L96.2308 35.1898Z" fill="#F26562"/>
<path d="M87.7927 10.5642C70.8439 10.5642 53.4725 11.9795 37.6935 18.5231C28.7034 22.2513 -11.144 38.3939 4.67194 53.0823C8.15316 56.3153 13.6226 57.3367 18.1357 58.0344C28.4922 59.6357 39.5376 59.1556 49.8108 57.2562C60.2847 55.3198 71.1114 52.5494 81.1317 48.9083C92.2571 44.8656 106.877 36.664 112.736 25.916C116.002 19.9252 112.453 10.6982 107.634 6.60245C100.395 0.449342 90.2857 1.01355 81.4152 1.01355" stroke="#EC2D29" stroke-width="2" stroke-linecap="round"/>
</svg>
